<svg id="Layer_1" data-name="Layer 1" xmlns="http://www.w3.org/2000/svg" viewBox="0 0 115 115"><defs><style>.cls-1{fill:#fff;}.cls-1,.cls-2,.cls-3{stroke:#231f20;stroke-miterlimit:10;}.cls-1,.cls-2{stroke-width:3px;}.cls-2{fill:#f47f71;opacity:0.5;}.cls-3{fill:none;stroke-width:4px;}.cls-4{fill:#f7f7f7;}.cls-5{fill:#32383e;}</style></defs><title>Beef</title><circle id="Background" class="cls-1" cx="57.5" cy="57.5" r="45"/><circle class="cls-2" cx="57.5" cy="57.5" r="45"/><circle class="cls-3" cx="57.5" cy="57.5" r="45"/><path class="cls-4" d="M81.58,46.78c0-3.18-3.38-7.47-6.35-6.35-12.7,4.76-30.16-3.18-30.16-3.18-3.51,0-10.89,14.7-7.94,15.88.44.17.86.36,1.27.54-3.42,1.18-4,3.92-1.27,4.22,14.29,1.59,10.95,22.23,12.7,22.23,2.13,0,4.26-4.15,5.43-7.94H70.82c.46,3.73,1.37,7.94,2.82,7.94s4.15-5.63,6-14.52C80.83,61.43,81.58,55.23,81.58,46.78Z"/><path class="cls-5" d="M43.48,57.89c-3.18,0-7.85.14-11.07.14s-5.78-5.52-3.71-7.59,8.43-3.66,6.84-10c-.86-3.45,6.35-4.76,9.53-3.18,7.64,3.83,7.93,15.88-3.18,15.88C41.89,53.13,46.65,57.89,43.48,57.89ZM75.23,40.43a29.47,29.47,0,0,1-13.06,1.33A13.18,13.18,0,0,0,59.35,50c0,7,5.33,12.7,11.91,12.7a11.7,11.7,0,0,0,9.87-5.59c.28-3,.45-6.37.45-10.28C81.58,43.6,78.2,39.31,75.23,40.43Z"/><circle class="cls-5" cx="55.39" cy="61.86" r="5.56"/><circle class="cls-5" cx="75.23" cy="67.42" r="3.18"/><path class="cls-4" d="M45.07,37.25c0,.88-1.07,1.59-2.38,1.59S35.54,35,35.54,34.08s3.54-.49,4.76,0C44.27,35.67,45.07,36.38,45.07,37.25Z"/><circle class="cls-4" cx="40.3" cy="43.6" r="1.59"/><path class="cls-5" d="M83.17,61.07a1.59,1.59,0,0,1-1.59-1.59V51.54c0-2.29-.89-3.17-3.18-3.17a1.59,1.59,0,0,1,0-3.18c4,0,6.35,2.31,6.35,6.35v7.94A1.58,1.58,0,0,1,83.17,61.07Z"/></svg>