<svg id="Layer_1" data-name="Layer 1" xmlns="http://www.w3.org/2000/svg" viewBox="0 0 115 115"><defs><style>.cls-1,.cls-3{fill:#da9f83;}.cls-1,.cls-2{stroke:#231f20;stroke-miterlimit:10;}.cls-1{stroke-width:3px;opacity:0.5;}.cls-2{fill:none;stroke-width:4px;}.cls-4{fill:#d99e83;}.cls-5{fill:#682616;}.cls-6{fill:#dd3446;}.cls-7{fill:#7bb254;}.cls-8{fill:#fac94d;}.cls-9{fill:#fce4b3;}.cls-10{fill:#fde4b3;}.cls-11{fill:#fde4b4;}.cls-12{fill:#fde5b4;}.cls-13{fill:#fee6b5;}</style></defs><title>Burger</title><circle class="cls-1" cx="57.5" cy="57.5" r="45"/><circle class="cls-2" cx="57.5" cy="57.5" r="45"/><path class="cls-3" d="M31.36,52.68C28.26,48.13,30,41.6,33.6,37.74c3.9-4.15,8.86-6.31,14.28-7.47A42.92,42.92,0,0,1,72.7,31.9c4.44,1.7,8.38,4.2,10.8,8.47,2.27,4,2.91,8.13.34,12.31a15.09,15.09,0,0,1-8.39,4.06,40.84,40.84,0,0,1-7.29.85c-8.61.11-17.24.56-25.83-.44C38.29,56.68,34.35,55.79,31.36,52.68ZM67.5,51.14c.49,0,1.17-.14,1.26-1,.11-1-1.57-2.92-2.53-2.94A1.9,1.9,0,0,0,64.37,49C64.37,50.22,65.59,51.1,67.5,51.14Zm-12-12.24c-1.2,0-2.08,1.16-2.15,2.87,0,.74.18,1.33,1,1.38a3.22,3.22,0,0,0,2.86-2.5A1.81,1.81,0,0,0,55.51,38.9ZM49.35,51.13c.61-.1,1.29-.23,1.27-1.21s-1.52-2.7-2.55-2.68A1.81,1.81,0,0,0,46.35,49C46.34,50.22,47.61,51.15,49.35,51.13Zm12.27-15v0a6.26,6.26,0,0,0,.75,0A1.86,1.86,0,0,0,64,34.8a1.54,1.54,0,0,0-.64-1.75,1.66,1.66,0,0,0-2.08-.11,11,11,0,0,0-1.28,1,1.37,1.37,0,0,0-.51,1.33c.15.57.72.77,1.26.87A6.36,6.36,0,0,0,61.62,36.17ZM45.86,37.91c.48,0,1.15.08,1.42-.57a1.67,1.67,0,0,0-.39-1.73c-.72-.84-1.38-1.88-2.76-1.34a1.65,1.65,0,0,0-1,2C43.28,37.26,44.33,37.87,45.86,37.91Zm27.85,1.72c1.49,0,1.9-.67,1.37-1.84a4,4,0,0,0-1.23-1.54,1.63,1.63,0,0,0-2.26,0,1.52,1.52,0,0,0-.32,2.2C71.9,39.45,73,39.38,73.71,39.63Zm-38.4,3.89c-.08.74.22,1.18,1.12,1.16,1.32,0,2.81-1.21,2.85-2.32a1.84,1.84,0,0,0-1.77-1.73C36.29,40.61,35.31,41.86,35.31,43.52Zm44.58,1.76c0-.66-.14-1.15-1-1.15-1.35,0-2.83,1.27-2.79,2.46a1.47,1.47,0,0,0,1.65,1.58C79,48.18,79.92,46.92,79.89,45.28Z"/><path class="cls-4" d="M84.35,67.64c2.3,4.68,1.53,12-6.25,15.26a38,38,0,0,1-11,2.51,106,106,0,0,1-15.84.23,41.22,41.22,0,0,1-14.13-2.75c-7.79-3.24-8.55-10.57-6.25-15.25a12.29,12.29,0,0,0,6.87,6.86,24.24,24.24,0,0,0,3.87,1.42c7,1.9,14.22,2,21.43,1.63a42.3,42.3,0,0,0,12.84-2.37C79.65,73.76,82.83,71.63,84.35,67.64Z"/><path class="cls-5" d="M84.35,67.64c-1.52,4-4.7,6.12-8.48,7.54A42.3,42.3,0,0,1,63,77.55c-7.21.37-14.39.27-21.43-1.63a24.24,24.24,0,0,1-3.87-1.42,12.29,12.29,0,0,1-6.87-6.86l-.39-2.35h0l0-.86a3.55,3.55,0,0,1,.73.08c8.47,2.75,16.94,5.5,25.18,8.88a2.94,2.94,0,0,0,2.41.07c6.9-2.92,14-5.4,21.09-7.71a22.49,22.49,0,0,1,4.92-1.32l0,.86h0Z"/><path class="cls-6" d="M31.36,52.68c3,3.11,6.93,4,11,4.47,8.59,1,17.22.55,25.83.44a40.84,40.84,0,0,0,7.29-.85,15.09,15.09,0,0,0,8.39-4.06c.15,1.57.41,3.14-.37,4.64-2.17,2.39-5.12,3.23-8.1,3.81a98.05,98.05,0,0,1-33.31.43c-3.78-.56-7.57-1.35-10.43-4.29A9.65,9.65,0,0,1,31.36,52.68Z"/><path class="cls-7" d="M31.63,57.27c2.86,2.94,6.65,3.73,10.43,4.29a98.05,98.05,0,0,0,33.31-.43c3-.58,5.93-1.42,8.1-3.81a11.88,11.88,0,0,1,2.47,2.17c.48.53.47,1-.16,1.4a3.25,3.25,0,0,0-2.23,1c-1.3,1.65-3,1.7-4.85,1.37-2.19-.37-4.2-.15-5.69,1.89-1.63,2.24-2.88,2.61-5.38,1.44a5.53,5.53,0,0,0-6.55.94C58.21,70,56.86,70.06,54,67.6a5.58,5.58,0,0,0-6.76-.93c-2.12,1-3.57.7-4.93-1.15-1.59-2.18-3.63-2.71-6.15-2.21-1.75.36-3.39.22-4.65-1.34a3,3,0,0,0-2.06-1c-1-.31-.85-.9-.32-1.49A10.39,10.39,0,0,1,31.63,57.27Z"/><path class="cls-8" d="M29.45,60.93a3,3,0,0,1,2.06,1c1.26,1.56,2.9,1.7,4.65,1.34,2.52-.5,4.56,0,6.15,2.21,1.36,1.85,2.81,2.2,4.93,1.15A5.58,5.58,0,0,1,54,67.6c2.86,2.46,4.21,2.42,7.08-.06a5.53,5.53,0,0,1,6.55-.94c2.5,1.17,3.75.8,5.38-1.44,1.49-2,3.5-2.26,5.69-1.89,1.88.33,3.55.28,4.85-1.37a3.25,3.25,0,0,1,2.23-1c.07.32.13.64.22,1,.33,1.21.12,2.16-1.23,2.57a22.49,22.49,0,0,0-4.92,1.32C72.72,68,65.66,70.52,58.76,73.44a2.94,2.94,0,0,1-2.41-.07C48.11,70,39.64,67.24,31.17,64.49a3.55,3.55,0,0,0-.73-.08C29,63.42,28.84,63,29.45,60.93Z"/><polygon class="cls-8" points="30.47 65.27 30.51 65.28 30.47 65.29 30.42 65.28 30.47 65.27"/><polygon class="cls-8" points="84.74 65.29 84.7 65.28 84.74 65.27 84.79 65.28 84.74 65.29"/><path class="cls-9" d="M67.5,51.14c-1.91,0-3.13-.92-3.13-2.11a1.9,1.9,0,0,1,1.86-1.83c1,0,2.64,1.92,2.53,2.94C68.67,51,68,51.11,67.5,51.14Z"/><path class="cls-10" d="M55.51,38.9a1.81,1.81,0,0,1,1.76,1.75,3.22,3.22,0,0,1-2.86,2.5c-.87,0-1.07-.64-1-1.38C53.43,40.06,54.31,38.88,55.51,38.9Z"/><path class="cls-10" d="M49.35,51.13c-1.74,0-3-.91-3-2.11a1.81,1.81,0,0,1,1.72-1.78c1,0,2.51,1.56,2.55,2.68S50,51,49.35,51.13Z"/><path class="cls-11" d="M61.62,36.17a6.36,6.36,0,0,1-.87-.06c-.54-.1-1.11-.3-1.26-.87A1.37,1.37,0,0,1,60,33.91a11,11,0,0,1,1.28-1,1.66,1.66,0,0,1,2.08.11A1.54,1.54,0,0,1,64,34.8a1.86,1.86,0,0,1-1.63,1.34,6.26,6.26,0,0,1-.75,0Z"/><path class="cls-12" d="M45.86,37.91c-1.53,0-2.58-.65-2.74-1.61a1.65,1.65,0,0,1,1-2c1.38-.54,2,.5,2.76,1.34a1.67,1.67,0,0,1,.39,1.73C47,38,46.34,37.89,45.86,37.91Z"/><path class="cls-10" d="M73.71,39.63c-.75-.25-1.81-.18-2.44-1.15a1.52,1.52,0,0,1,.32-2.2,1.63,1.63,0,0,1,2.26,0,4,4,0,0,1,1.23,1.54C75.61,39,75.2,39.61,73.71,39.63Z"/><path class="cls-10" d="M35.31,43.52c0-1.66,1-2.91,2.2-2.89a1.84,1.84,0,0,1,1.77,1.73c0,1.11-1.53,2.28-2.85,2.32C35.53,44.7,35.23,44.26,35.31,43.52Z"/><path class="cls-13" d="M79.89,45.28c0,1.64-.92,2.9-2.14,2.89a1.47,1.47,0,0,1-1.65-1.58c0-1.19,1.44-2.46,2.79-2.46C79.75,44.13,79.94,44.62,79.89,45.28Z"/></svg>