<svg id="Layer_1" data-name="Layer 1" xmlns="http://www.w3.org/2000/svg" viewBox="0 0 115 115"><defs><style>.cls-1{fill:#fff;}.cls-1,.cls-2,.cls-3{stroke:#231f20;stroke-miterlimit:10;}.cls-1,.cls-2{stroke-width:3px;}.cls-2{fill:#fbf6b6;opacity:0.5;}.cls-3{fill:none;stroke-width:4px;}.cls-4{fill:#fbab36;}.cls-5{fill:#de3045;}.cls-6{fill:#da9f83;}.cls-7{fill:#2a2f33;}</style></defs><title>Chicken</title><circle id="Background" class="cls-1" cx="57.5" cy="57.5" r="45"/><circle class="cls-2" cx="57.5" cy="57.5" r="45"/><circle class="cls-3" cx="57.5" cy="57.5" r="45"/><path class="cls-4" d="M69.25,82.39a1.54,1.54,0,0,0-.67-.62,5.15,5.15,0,0,1-.73-5.89c0-.87,1.59-3.17,0-3.17L66.26,74.3c-1.58,1.58-1.58,6.35-1.58,6.35H61.5a1.59,1.59,0,1,0,0,3.17h1.76l-.35.19a1.59,1.59,0,1,0,1.51,2.8l4.19-2.27A1.59,1.59,0,0,0,69.25,82.39Zm-11.12,0a1.46,1.46,0,0,0-.66-.62,5.15,5.15,0,0,1-.73-5.89c0-.87,1.59-3.17,0-3.17L55.15,74.3c-1.59,1.58-1.59,6.35-1.59,6.35H50.39a1.59,1.59,0,1,0,0,3.17h1.76l-.36.19a1.59,1.59,0,0,0,1.52,2.8l4.18-2.27A1.58,1.58,0,0,0,58.13,82.39ZM41.68,45.72c0,1.76-1.77,3.18-4,3.18s-5.55-1.59-5.55-3.18,3.36-3.17,5.55-3.17S41.68,44,41.68,45.72Z"/><path class="cls-5" d="M51.21,33a3.49,3.49,0,0,0-4.77,1.59s0-4.76-4.76-4.76-4.76,4.76-4.76,4.76-4.76-1.49-4.76,3.18a3.68,3.68,0,0,0,3.94,3.79V48.9c0,1.59.42,4.76-1.17,6.35S31,61.6,35.75,61.6s4.76-6.35,4.76-11.11c1.59,1.58,6.35,1.58,6.35-6.35A5.49,5.49,0,0,0,46,41h2C54.38,41,54.38,34.61,51.21,33Z"/><path class="cls-6" d="M81.37,44.14c6.35,15.87,0,34.92-20.64,34.92-12.27,0-20.64-9.52-22.22-17.46-1.87-9.34-1.59-12.7-1.59-19.05,0-4.35,3.36-7.66,7.94-6.35,11.11,3.17,7.93,15.87,19,15.87C79.78,52.07,77,33.15,81.37,44.14Z"/><circle class="cls-7" cx="41.68" cy="42.55" r="1.59"/></svg>