<svg id="Layer_1" data-name="Layer 1" xmlns="http://www.w3.org/2000/svg" viewBox="0 0 115 115"><defs><style>.cls-1{fill:#fff;}.cls-1,.cls-2,.cls-3{stroke:#231f20;stroke-miterlimit:10;}.cls-1,.cls-2{stroke-width:3px;}.cls-2{fill:#bebad8;opacity:0.5;}.cls-3{fill:none;stroke-width:4px;}.cls-4{fill:#da9f83;}.cls-5{fill:#c26a50;}.cls-6{fill:#f0efef;}.cls-7{fill:#2a2f33;}.cls-8{fill:#407337;}.cls-9{fill:#ffcc4d;}.cls-10{fill:#f5f8fa;}</style></defs><title>Duck</title><circle id="Background" class="cls-1" cx="57.5" cy="57.5" r="45"/><circle class="cls-2" cx="57.5" cy="57.5" r="45"/><circle class="cls-3" cx="57.5" cy="57.5" r="45"/><path class="cls-4" d="M48.29,60.58c2,3.48,3-2.16,14.78-4.17s21.8,7.07,22,8.59S78,80,70.06,80H45.12C38.54,80,34,68.56,38.77,61.87,38.77,61.87,45.91,56.31,48.29,60.58Z"/><path class="cls-5" d="M48.7,61.19C40.78,72.2,39.11,80,45.12,80,38.54,80,34.67,70.2,38,62.51a19.46,19.46,0,0,1,2.79-3.95l6.64,0C47.71,59.05,48.4,60.71,48.7,61.19Z"/><path class="cls-6" d="M59.9,68.52c10.59-4.26,25-5,25.18-3.52S78,80,70.06,80H46.8C40.23,80,48.76,73,59.9,68.52Z"/><path class="cls-7" d="M68.31,65.94c9.52-2.09,16.62-2,16.77-.94.12.92-2.48,6.21-6.31,10.25C82.27,70.8,81,65.55,68.31,65.94Z"/><path class="cls-8" d="M39.36,42.12c2.48-7.84,16.58-6.57,16,1.1s-10.25,12.47-6.64,18c-2.52,2.19-8,1.45-10.68,1.32,1.12-2.14,2.19-4.17,2.88-5.4C45.53,48.8,37.52,48,39.36,42.12Z"/><path class="cls-9" d="M31.06,46.76c.9-1.75.87.17,5.32.22,2.46,0,2.32-.88,2.64-2.57.06-.35,1.23,2.57,3.27,2.87,5.64.84,3,3.08,0,3.59a22.75,22.75,0,0,1-6.25.25C32,50.78,30.06,48.69,31.06,46.76Z"/><path class="cls-10" d="M47.9,58.79a8,8,0,0,0,.8,2.4c-1.61,2.34-9,4.79-11.67,4.65a12.49,12.49,0,0,1,1-3.33C41,61.77,45.42,60.81,47.9,58.79Z"/><path class="cls-7" d="M46.64,42.16a2.06,2.06,0,1,1-2.06-2A2.06,2.06,0,0,1,46.64,42.16Z"/></svg>