<svg id="Layer_1" data-name="Layer 1" xmlns="http://www.w3.org/2000/svg" viewBox="0 0 115 115"><defs><style>.cls-1{fill:#fff;}.cls-1,.cls-2,.cls-3{stroke:#231f20;stroke-miterlimit:10;}.cls-1,.cls-2{stroke-width:3px;}.cls-2{fill:#82b1d3;opacity:0.5;}.cls-3{fill:none;stroke-width:4px;}.cls-4{fill:#3b89c3;}.cls-5{fill:#010101;}.cls-6{fill:#5fa9dd;}.cls-7{fill:#23679a;}</style></defs><title>Fish</title><circle id="Background" class="cls-1" cx="57.5" cy="57.5" r="45"/><circle class="cls-2" cx="57.5" cy="57.5" r="45"/><circle class="cls-3" cx="57.5" cy="57.5" r="45"/><path class="cls-4" d="M78.82,60c0-1.59,2.42-9.86,4.84-12.28s0-5-2.42-5c-5.4,0-14.51,10.95-14.51,17.3,0,7.94,9.11,16.55,14.51,16.55,2.42,0,4.84-2.23,2.42-4.65S78.82,63.19,78.82,60Z"/><path class="cls-4" d="M42.1,44.75c0-4.84,2.38-9.68,4.8-9.68,7.25,0,21.14,7.66,23.56,19.75S42.1,44.75,42.1,44.75Zm7.71,29A18.44,18.44,0,0,0,61.9,78.6c4.83,0-4.94-6.65-2.42-9.67C62.94,64.77,49.81,73.76,49.81,73.76Z"/><path class="cls-5" d="M31.07,67.51c1.21-3.62.3-6.24-1.82-8.86s6.15-3,8.87.6,9.07,10,3.43,9.88A41.55,41.55,0,0,1,31.07,67.51Z"/><path class="cls-6" d="M28.05,59.2c1.52,1.39,11.46,6.84,11.37,8.15s-3.62-.14-4.93-.44c-2.36-.54-3-1-3.68-.84-1.33.51-.88,1.91-.38,2.71,2.38,4.14,11.57,7.4,19.3,7.4,13.36,0,26.68-12.09,26.68-16.93S61.57,42.33,48.22,42.33,28.07,52,28.05,59.2Z"/><path class="cls-5" d="M38.89,48.9a3.18,3.18,0,1,1-3.17,3.17A3.17,3.17,0,0,1,38.89,48.9Z"/><path class="cls-7" d="M51.72,69.5a1.46,1.46,0,0,1-.73-.18,1.59,1.59,0,0,1-.68-2.14c2.52-4.82,3.53-9.16.25-14.67a1.59,1.59,0,1,1,2.73-1.62c4.27,7.19,2.32,13-.16,17.76A1.6,1.6,0,0,1,51.72,69.5Z"/></svg>