<svg id="Layer_1" data-name="Layer 1" xmlns="http://www.w3.org/2000/svg" viewBox="0 0 115 115"><defs><style>.cls-1{fill:#fff;}.cls-1,.cls-2,.cls-3{stroke:#231f20;stroke-miterlimit:10;}.cls-1,.cls-2{stroke-width:3px;}.cls-2{fill:#fbb463;opacity:0.5;}.cls-3{fill:none;stroke-width:4px;}.cls-4{fill:#fbab36;}.cls-5{fill:#f4f4f5;}.cls-6{fill:#2a2f33;}.cls-7{fill:#ffcc4d;}</style></defs><title>Lamb</title><circle id="Background" class="cls-1" cx="57.5" cy="57.5" r="45"/><circle class="cls-2" cx="57.5" cy="57.5" r="45"/><circle class="cls-3" cx="57.5" cy="57.5" r="45"/><path class="cls-4" d="M47,31.11c7.21-.42,12.42,2.53,12.84,10.83.34,6.65-8.23,10.78-12.77,10.92-3.91.13-2.15-2.94,1-3.7,2.5-.62,6.54-3.83,5.72-7-.95-3.68-6.85-4.26-10.09.46-1.26,1.86-5.64,1.39-6.5-.69C35.65,38.22,39.09,31.56,47,31.11Z"/><path class="cls-5" d="M84.73,59.4c0-12.36-7.14-18.11-23.05-18.11-1.72,0-3.31.08-4.79.22C54.73,37.66,49.2,37,43.85,37,37,37,28,46.77,28,54.23S33.7,62,40.38,62c.37,5.15,1.94,9,5.16,11.53C46,75.31,48,82.6,51.79,82.6c2.15,0,3.33-2.69,4-5.42a50.78,50.78,0,0,0,5.91.33A48.35,48.35,0,0,0,69.14,77c.14,2.63.84,5.62,3.29,5.62,3.68,0,6.78-7.87,7.67-10.35C83.23,69.28,84.73,65,84.73,59.4Z"/><circle class="cls-6" cx="35.12" cy="50.51" r="2.38"/><path class="cls-7" d="M55.86,32.34c6.84,2.31,9.11,6.59,6.4,14.45-2.17,6.29-11.66,6.92-15.93,5.35-3.67-1.34-.89-3.53,2.28-3.07,2.55.36,7.51-1.11,7.94-4.41.5-3.77-4.76-6.51-9.52-3.33-1.87,1.24-9.17.68-8.73-1.52C39.31,34.69,48.35,29.81,55.86,32.34Z"/></svg>