<svg id="Layer_1" data-name="Layer 1" xmlns="http://www.w3.org/2000/svg" viewBox="0 0 115 115"><defs><style>.cls-1{opacity:0.5;}.cls-2{fill:#fff;}</style></defs><title>Logo</title><g class="cls-1"><path class="cls-2" d="M23.36,108.37h-18V71.69H109.74V82.77l-.07-.18a1.57,1.57,0,1,0-1.87,2,1.56,1.56,0,0,0,1.81-.91c0-.11.09-.21.13-.32v25H24.23a1.08,1.08,0,0,1,.19,0c.74-.08,1.48-.12,2.21-.23a16.68,16.68,0,0,0,3.31-1A14.37,14.37,0,0,0,35.86,103,19.69,19.69,0,0,0,39.74,96a18.19,18.19,0,0,0,.87-7.25,15.15,15.15,0,0,0-1.91-6.14,14.71,14.71,0,0,0-2.28-3.15,17,17,0,0,0-11.06-4.86c-.53,0-1.06,0-1.59,0s-1.2,0-1.79.08-1.14.15-1.72.23a.53.53,0,0,0-.48.42.87.87,0,0,0,.33.93,24,24,0,0,1,2.77,2.36,2.8,2.8,0,0,1,.22.25l-1.75.29a.19.19,0,0,1-.15-.08,1.17,1.17,0,0,0-1.15-.62,9,9,0,0,0-1.47.24,11.73,11.73,0,0,1-2.26.44c-.12,0-.25,0-.27-.16-.07-1-.16-2-.23-3,0-.53,0-.53.46-.76a16.64,16.64,0,0,1,3-1,21.21,21.21,0,0,1,3.44-.62c.71-.07,1.42-.09,2.12-.14.14,0,.31,0,.31-.16s-.16-.18-.29-.19c-.57,0-1.15-.12-1.73-.14a13.77,13.77,0,0,0-3.67.39,18.92,18.92,0,0,0-5.16,1.94A17.52,17.52,0,0,0,8.22,81.2a16.26,16.26,0,0,0-1.68,3.23,20.21,20.21,0,0,0-1.11,6,18.43,18.43,0,0,0,.17,3.32,15.2,15.2,0,0,0,1.51,4.89,19.88,19.88,0,0,0,2.72,4,15.68,15.68,0,0,0,6.87,4.65,22.11,22.11,0,0,0,5.52,1ZM50.37,93h14.8V91.41a13.84,13.84,0,0,0-.61-4.14,9.06,9.06,0,0,0-2.36-3.9,8.49,8.49,0,0,0-5.76-2.25,11.22,11.22,0,0,0-3.94.54,9.76,9.76,0,0,0-7,8.94,10.6,10.6,0,0,0,.56,4.25,9.55,9.55,0,0,0,5,5.53,11.41,11.41,0,0,0,5.66,1.09,9.82,9.82,0,0,0,5.68-2c.33-.25.64-.53.94-.79l-3.08-3.09a1.79,1.79,0,0,1-.14.18A6.12,6.12,0,0,1,55,97.58a4.91,4.91,0,0,1-4-2.5A5.39,5.39,0,0,1,50.37,93ZM78.55,86.9l3.08-3.07,0-.06a7.11,7.11,0,0,0-3.5-2.21,11.07,11.07,0,0,0-6-.08,7.17,7.17,0,0,0-3.3,1.79,5.55,5.55,0,0,0-1.64,3.94A5.4,5.4,0,0,0,67.68,90a4.89,4.89,0,0,0,2.47,2.12,17.71,17.71,0,0,0,3.52,1,14.29,14.29,0,0,1,2.48.7,2.37,2.37,0,0,1,1.26,1,1.85,1.85,0,0,1-.8,2.43,4.67,4.67,0,0,1-4,.33,5.58,5.58,0,0,1-2.16-1.36c-.25-.23-.48-.48-.72-.72l-3.11,3.14s0,0,0,0A8.49,8.49,0,0,0,71,101.15a13.21,13.21,0,0,0,3.76.32,11,11,0,0,0,4.19-.92A5.86,5.86,0,0,0,81.77,98a5.94,5.94,0,0,0,.62-3.61,4.76,4.76,0,0,0-1.08-2.64,6.19,6.19,0,0,0-2.71-1.73,25.62,25.62,0,0,0-3.47-.9,8.74,8.74,0,0,1-2.22-.72,1.52,1.52,0,0,1-1-1.32,1.74,1.74,0,0,1,1.1-1.74,4.32,4.32,0,0,1,4.28.34A4.69,4.69,0,0,1,78.55,86.9Zm11-5.3H84.7V101h4.82v-.26c0-3.26,0-6.52,0-9.79a5.92,5.92,0,0,1,.19-1.57,4.58,4.58,0,0,1,2.47-3.13,6,6,0,0,1,3.75-.42c.32,0,.63.12.95.18a.49.49,0,0,0,0-.11c.07-1.46.12-2.92.19-4.37,0-.13,0-.16-.15-.18a5.86,5.86,0,0,0-2.24-.21,6.11,6.11,0,0,0-5,3.36l-.1.17-.06,0Zm10,0V101h4.82V81.6Zm2.37-3.6,0,0a9.56,9.56,0,0,0,1.18-.26,3.05,3.05,0,0,0,1.67-4.4,3.33,3.33,0,0,0-3.41-1.55,3.1,3.1,0,0,0,.54,6.16Z"/><path class="cls-2" d="M23.36,108.37l-1.14-.09a22.11,22.11,0,0,1-5.52-1,15.68,15.68,0,0,1-6.87-4.65,19.88,19.88,0,0,1-2.72-4A15.2,15.2,0,0,1,5.6,93.77a18.43,18.43,0,0,1-.17-3.32,20.21,20.21,0,0,1,1.11-6A16.26,16.26,0,0,1,8.22,81.2a17.52,17.52,0,0,1,6.08-5.87,18.92,18.92,0,0,1,5.16-1.94A13.77,13.77,0,0,1,23.13,73c.58,0,1.16.09,1.73.14.13,0,.3,0,.29.19s-.17.16-.31.16c-.7.05-1.41.07-2.12.14a21.21,21.21,0,0,0-3.44.62,16.64,16.64,0,0,0-3,1c-.47.23-.49.23-.46.76.07,1,.16,2,.23,3,0,.2.15.16.27.16a11.73,11.73,0,0,0,2.26-.44,9,9,0,0,1,1.47-.24,1.17,1.17,0,0,1,1.15.62.19.19,0,0,0,.15.08l1.75-.29a2.8,2.8,0,0,0-.22-.25,24,24,0,0,0-2.77-2.36.87.87,0,0,1-.33-.93.53.53,0,0,1,.48-.42c.58-.08,1.14-.18,1.72-.23s1.19-.07,1.79-.08,1.06,0,1.59,0A17,17,0,0,1,36.42,79.5a14.71,14.71,0,0,1,2.28,3.15,15.15,15.15,0,0,1,1.91,6.14A18.19,18.19,0,0,1,39.74,96,19.69,19.69,0,0,1,35.86,103a14.37,14.37,0,0,1-5.92,4.19,16.68,16.68,0,0,1-3.31,1c-.73.11-1.47.15-2.21.23a1.08,1.08,0,0,0-.19,0Zm-4.93-3.05c-.56-.22-1.1-.43-1.64-.66a.4.4,0,0,1-.22-.2c-.22-.53-.41-1.08-.62-1.61a1.13,1.13,0,0,0-.19-.32l-1.31-1.42c-.22-.24-.42-.51-.65-.79-.19.17-.38.31-.54.47a2,2,0,0,1-1.55.59c-.29,0-.35-.08-.19-.33a6.37,6.37,0,0,1,.63-.82c.26-.29.55-.54.83-.81-.14-.24-.14-.24-.4-.33a3.53,3.53,0,0,1-1.88-1.4,2,2,0,0,1,0-2.43.19.19,0,0,0,0-.12l-.51-1.29-.14.07c-.38.28-.77.55-1.14.84a.64.64,0,0,1-1.07-.43.79.79,0,0,1,.37-.76l1.14-.81.2-.16c-.5-.67-1-1.32-1.49-2A.53.53,0,0,1,8,90.26a16.06,16.06,0,0,1,.47-3.07.87.87,0,0,0,0-.23l-.73.56c-.27.2-.52.47-.94.32a4.09,4.09,0,0,0,0,.46c0,.91,0,1.83,0,2.74a18.87,18.87,0,0,0,1,5.21,15.67,15.67,0,0,0,6.26,8.15,13.8,13.8,0,0,0,3.6,1.75.24.24,0,0,0,.19,0Zm7.74-22.19A18.61,18.61,0,0,0,24,80a.25.25,0,0,0-.2-.07l-1.95.27a4.34,4.34,0,0,0-.88.21c-.46.18-.89.43-1.35.62a9.13,9.13,0,0,0-2.78,1.62.25.25,0,0,0-.09.3c.35,1.24.7,2.48,1.06,3.71.08.3.2.59.3.9l.22-.08a28.84,28.84,0,0,1,4.41-1.46c.17,0,.23-.1.22-.27a1.73,1.73,0,0,1,.91-1.6c.41-.23.84-.43,1.26-.63S25.82,83.28,26.17,83.13ZM21.32,95.75c.23.43.42.84.65,1.22.85,1.38,1.71,2.74,2.56,4.12a.25.25,0,0,0,.36.13,16.5,16.5,0,0,1,4-1c.4,0,.4,0,.37-.44a.22.22,0,0,1,0-.08,7.8,7.8,0,0,1,.26-2.54c.08-.35.17-.7.22-1a1.22,1.22,0,0,0-.25-1q-.43-.54-.84-1.11a.22.22,0,0,0-.24-.12l-.86.08a19.58,19.58,0,0,0-5.1,1.23C22.06,95.41,21.7,95.58,21.32,95.75Zm1.73-8.53-.31.06a25.2,25.2,0,0,0-4,1.46c-.13.07-.16.12-.11.26.53,1.42,1,2.86,1.57,4.28.15.4.34.78.52,1.19a19.59,19.59,0,0,1,3.47-1.21,20,20,0,0,1,3.62-.54.41.41,0,0,0,0-.09,2.42,2.42,0,0,0-1.84-1.14c-.5,0-1,0-1.49-.08a1.79,1.79,0,0,1-1.73-1.53,3.12,3.12,0,0,1,.1-1.63A6.76,6.76,0,0,0,23.05,87.22Zm12.28-6.77,0-.07-.23-.27a14.13,14.13,0,0,0-4.72-3.21A20,20,0,0,0,22,75.25c-.27,0-.54,0-.84,0l.13.11c.52.45,1.08.87,1.58,1.36S24,78,24.53,78.61a.42.42,0,0,0,.26.12c.67,0,1.34,0,2,0a22.84,22.84,0,0,1,3.49.37l.39.08c-.07-.09-.11-.13-.14-.18a3.17,3.17,0,0,1-.36-.46c-.12-.2,0-.36.23-.34a.86.86,0,0,1,.35.12l1.2.89a.89.89,0,0,0,.25.14c.52.17,1,.31,1.56.5S34.79,80.24,35.33,80.45ZM19.54,95l-2.11-5.67-.16.07c-.67.36-1.35.7-2,1.08a31,31,0,0,0-3.68,2.45.2.2,0,0,0-.08.26c.16.4.3.8.45,1.2,0,.11.08.14.2.1l.68-.19a3.82,3.82,0,0,1,2.09-.22l4.23,1A.44.44,0,0,0,19.54,95ZM16,83.66a2.5,2.5,0,0,0-.18.23l-.9,1.29A9.6,9.6,0,0,1,13.34,87a2.35,2.35,0,0,1-1.23.63,2.14,2.14,0,0,0-1.88,1.54.39.39,0,0,0,0,.26c.1.41.21.83.34,1.23s.22.7.35,1.06l.12-.08c.46-.31.92-.64,1.39-.94A38.09,38.09,0,0,1,17,88.11c.14-.06.14-.14.1-.26-.26-1-.53-2-.79-3C16.18,84.48,16.1,84.09,16,83.66Zm21.77,4.7a.37.37,0,0,0,0,.11c.06.49.12,1,.19,1.48a.69.69,0,0,1-.14.57,2.63,2.63,0,0,0-.31.48.39.39,0,0,0-.06.21c.06,1.05.13,2.09.21,3.13a.34.34,0,0,0,.13.21c.14.11.31.2.44.32s.17.26,0,.39a3.76,3.76,0,0,1-.56.33l-.17,3.18a.75.75,0,0,0,.14-.24,27.43,27.43,0,0,0,1.14-3.42,15.42,15.42,0,0,0,.46-5.89,17.17,17.17,0,0,0-.71-3.33A11,11,0,0,0,37,82.67a2.61,2.61,0,0,0-1.17-1.08c-.29-.1-.56-.25-.85-.37l-.73-.29a.2.2,0,0,0,.06.14,15,15,0,0,1,3.28,6.3.51.51,0,0,0,.19.25c.19.14.41.24.59.39a.33.33,0,0,1,.1.27s-.14.12-.22.13A4.12,4.12,0,0,1,37.78,88.36Zm-12.41,14,.1.18a30.8,30.8,0,0,0,2.83,3.71.21.21,0,0,0,.29.06c.75-.33,1.51-.67,2.27-1a.47.47,0,0,0,.33-.5c0-.4,0-.81,0-1.22l-.31.18c-.15-.18-.33-.35-.46-.54a6.75,6.75,0,0,1-.82-1.74c0-.12-.08-.15-.21-.13a18,18,0,0,0-3,.64C26.07,102.07,25.73,102.2,25.37,102.32Zm-10-23.09-.29-3.32a.75.75,0,0,0-.13.06c-.3.19-.61.38-.91.59a21.18,21.18,0,0,0-4.68,4.77.77.77,0,0,0-.15.43c0,.89.1,1.78.15,2.67l.05.11.14-.27A15.19,15.19,0,0,1,13,79.69a.91.91,0,0,1,.54-.23Zm4.94,25.91c.09.08.16.15.23.2.71.51,1.41,1,2.13,1.52A.72.72,0,0,0,23,107a21.61,21.61,0,0,0,3.32-.21l.68-.11a.79.79,0,0,1-.11-.14L24.31,103a.21.21,0,0,0-.31-.1,19.14,19.14,0,0,0-2.75,1.57C20.93,104.65,20.62,104.89,20.28,105.14Zm14.24-4.57L36,101a.18.18,0,0,0,.14,0,2.26,2.26,0,0,0,.77-1.49c0-.19,0-.38,0-.57,0-1.17,0-2.34,0-3.51a.25.25,0,0,0-.12-.2c-.4-.15-.8-.28-1.21-.41a.17.17,0,0,0-.15.06,5.22,5.22,0,0,0-.68,2.68c0,.56.08,1.12.06,1.69S35,100.2,34.52,100.57Zm-13.2-2.25c0,.05,0,.07-.05.1-.11.39-.21.79-.34,1.17a12.13,12.13,0,0,0-.5,1.51c-.13.77-.16,1.55-.22,2.33a2.47,2.47,0,0,0,0,.38l3.28-2.08Zm14.33,3.31,0-.07L34,101.31c-.06,0-.15.06-.21.11l-1.49,1.34a.31.31,0,0,0-.09.2q0,.71-.06,1.41a.72.72,0,0,0,0,.2A13.84,13.84,0,0,0,35.65,101.63ZM25.48,79.81l1.7,2.6a5.58,5.58,0,0,1,2.43-2.47A22.8,22.8,0,0,0,25.48,79.81ZM8.11,83.39a10.44,10.44,0,0,0-1.27,4.09s0,0,0,0c.43-.58.86-1.15,1.29-1.74a.46.46,0,0,0,.08-.28c0-.63-.07-1.26-.11-1.89C8.13,83.49,8.12,83.45,8.11,83.39Zm10.79,23.2a9.74,9.74,0,0,0,2.24.31c-.5-.36-1-.71-1.53-1a.13.13,0,0,0-.14,0C19.28,106.11,19.1,106.34,18.9,106.59ZM37,94.17l-.15-1.88h-.06L36,93.8Z"/><path class="cls-2" d="M109.74,83.36c0,.11-.08.21-.13.32a1.56,1.56,0,0,1-1.81.91,1.57,1.57,0,1,1,1.87-2l.07.18Zm-1.57-1.58a1.29,1.29,0,0,0,0,2.58,1.29,1.29,0,1,0,0-2.58Z"/><path class="cls-2" d="M50.37,93A5.39,5.39,0,0,0,51,95.08a4.91,4.91,0,0,0,4,2.5,6.12,6.12,0,0,0,5.1-1.84,1.79,1.79,0,0,0,.14-.18l3.08,3.09c-.3.26-.61.54-.94.79a9.82,9.82,0,0,1-5.68,2,11.41,11.41,0,0,1-5.66-1.09,9.55,9.55,0,0,1-5-5.53,10.6,10.6,0,0,1-.56-4.25,9.76,9.76,0,0,1,7-8.94,11.22,11.22,0,0,1,3.94-.54,8.49,8.49,0,0,1,5.76,2.25,9.06,9.06,0,0,1,2.36,3.9,13.84,13.84,0,0,1,.61,4.14V93Zm10-3.65a8.9,8.9,0,0,0-.11-.92,4.12,4.12,0,0,0-2.07-3,5.4,5.4,0,0,0-2.36-.64,5.3,5.3,0,0,0-3.14.7,4.72,4.72,0,0,0-2.09,2.9c-.09.32-.15.65-.22,1Z"/><path class="cls-2" d="M78.55,86.9a4.69,4.69,0,0,0-1.21-1.18,4.32,4.32,0,0,0-4.28-.34A1.74,1.74,0,0,0,72,87.12a1.52,1.52,0,0,0,1,1.32,8.74,8.74,0,0,0,2.22.72,25.62,25.62,0,0,1,3.47.9,6.19,6.19,0,0,1,2.71,1.73,4.76,4.76,0,0,1,1.08,2.64A5.94,5.94,0,0,1,81.77,98a5.86,5.86,0,0,1-2.87,2.51,11,11,0,0,1-4.19.92,13.21,13.21,0,0,1-3.76-.32,8.49,8.49,0,0,1-4.27-2.47s0,0,0,0l3.11-3.14c.24.24.47.49.72.72a5.58,5.58,0,0,0,2.16,1.36,4.67,4.67,0,0,0,4-.33,1.85,1.85,0,0,0,.8-2.43,2.37,2.37,0,0,0-1.26-1,14.29,14.29,0,0,0-2.48-.7,17.71,17.71,0,0,1-3.52-1A4.89,4.89,0,0,1,67.68,90a5.4,5.4,0,0,1-.57-2.74,5.55,5.55,0,0,1,1.64-3.94,7.17,7.17,0,0,1,3.3-1.79,11.07,11.07,0,0,1,6,.08,7.11,7.11,0,0,1,3.5,2.21l0,.06Z"/><path class="cls-2" d="M89.53,81.6v3.05l.06,0,.1-.17a6.11,6.11,0,0,1,5-3.36,5.86,5.86,0,0,1,2.24.21c.1,0,.15.05.15.18C97,83,97,84.44,96.89,85.9a.49.49,0,0,1,0,.11c-.32-.06-.63-.13-.95-.18a6,6,0,0,0-3.75.42,4.58,4.58,0,0,0-2.47,3.13A5.92,5.92,0,0,0,89.52,91c0,3.27,0,6.53,0,9.79V101H84.7V81.6Z"/><path class="cls-2" d="M99.57,81.6h4.82V101H99.57Z"/><path class="cls-2" d="M101.94,78a3.1,3.1,0,0,1-.54-6.16,3.33,3.33,0,0,1,3.41,1.55,3.05,3.05,0,0,1-1.67,4.4,9.56,9.56,0,0,1-1.18.26Z"/><path class="cls-2" d="M18.43,105.32l-.71.82a.24.24,0,0,1-.19,0,13.8,13.8,0,0,1-3.6-1.75,15.67,15.67,0,0,1-6.26-8.15,18.87,18.87,0,0,1-1-5.21c0-.91,0-1.83,0-2.74a4.09,4.09,0,0,1,0-.46c.42.15.67-.12.94-.32L8.42,87a.87.87,0,0,1,0,.23A16.06,16.06,0,0,0,8,90.26a.53.53,0,0,0,.12.38c.5.64,1,1.29,1.49,2l-.2.16-1.14.81a.79.79,0,0,0-.37.76.64.64,0,0,0,1.07.43c.37-.29.76-.56,1.14-.84l.14-.07.51,1.29a.19.19,0,0,1,0,.12,2,2,0,0,0,0,2.43,3.53,3.53,0,0,0,1.88,1.4c.26.09.26.09.4.33-.28.27-.57.52-.83.81a6.37,6.37,0,0,0-.63.82c-.16.25-.1.32.19.33a2,2,0,0,0,1.55-.59c.16-.16.35-.3.54-.47.23.28.43.55.65.79l1.31,1.42a1.13,1.13,0,0,1,.19.32c.21.53.4,1.08.62,1.61a.4.4,0,0,0,.22.2C17.33,104.89,17.87,105.1,18.43,105.32Z"/><path class="cls-2" d="M26.17,83.13c-.35.15-.68.28-1,.43s-.85.4-1.26.63a1.73,1.73,0,0,0-.91,1.6c0,.17-.05.23-.22.27a28.84,28.84,0,0,0-4.41,1.46l-.22.08c-.1-.31-.22-.6-.3-.9-.36-1.23-.71-2.47-1.06-3.71a.25.25,0,0,1,.09-.3,9.13,9.13,0,0,1,2.78-1.62c.46-.19.89-.44,1.35-.62a4.34,4.34,0,0,1,.88-.21L23.84,80A.25.25,0,0,1,24,80,18.61,18.61,0,0,1,26.17,83.13Z"/><path class="cls-2" d="M21.32,95.75c.38-.17.74-.34,1.1-.48A19.58,19.58,0,0,1,27.52,94l.86-.08a.22.22,0,0,1,.24.12q.4.57.84,1.11a1.22,1.22,0,0,1,.25,1c-.05.35-.14.7-.22,1a7.8,7.8,0,0,0-.26,2.54.22.22,0,0,0,0,.08c0,.4,0,.4-.37.44a16.5,16.5,0,0,0-4,1,.25.25,0,0,1-.36-.13C23.68,99.71,22.82,98.35,22,97,21.74,96.59,21.55,96.18,21.32,95.75Z"/><path class="cls-2" d="M23.05,87.22a6.76,6.76,0,0,1-.25,1,3.12,3.12,0,0,0-.1,1.63,1.79,1.79,0,0,0,1.73,1.53c.49,0,1,0,1.49.08a2.42,2.42,0,0,1,1.84,1.14.41.41,0,0,1,0,.09,20,20,0,0,0-3.62.54,19.59,19.59,0,0,0-3.47,1.21c-.18-.41-.37-.79-.52-1.19-.53-1.42-1-2.86-1.57-4.28-.05-.14,0-.19.11-.26a25.2,25.2,0,0,1,4-1.46Z"/><path class="cls-2" d="M35.33,80.45c-.54-.21-1-.42-1.56-.6s-1-.33-1.56-.5a.89.89,0,0,1-.25-.14l-1.2-.89a.86.86,0,0,0-.35-.12c-.23,0-.35.14-.23.34a3.17,3.17,0,0,0,.36.46s.07.09.14.18l-.39-.08a22.84,22.84,0,0,0-3.49-.37c-.67,0-1.34,0-2,0a.42.42,0,0,1-.26-.12c-.57-.62-1.12-1.26-1.71-1.85s-1.06-.91-1.58-1.36l-.13-.11c.3,0,.57,0,.84,0a20,20,0,0,1,8.38,1.65,14.13,14.13,0,0,1,4.72,3.21l.23.27Z"/><path class="cls-2" d="M19.54,95a.44.44,0,0,1-.4.08l-4.23-1a3.82,3.82,0,0,0-2.09.22l-.68.19c-.12,0-.16,0-.2-.1-.15-.4-.29-.8-.45-1.2a.2.2,0,0,1,.08-.26,31,31,0,0,1,3.68-2.45c.67-.38,1.35-.72,2-1.08l.16-.07Z"/><path class="cls-2" d="M16,83.66c.09.43.17.82.27,1.2.26,1,.53,2,.79,3,0,.12,0,.2-.1.26a38.09,38.09,0,0,0-4.56,2.61c-.47.3-.93.63-1.39.94l-.12.08c-.13-.36-.25-.71-.35-1.06s-.24-.82-.34-1.23a.39.39,0,0,1,0-.26,2.14,2.14,0,0,1,1.88-1.54A2.35,2.35,0,0,0,13.34,87a9.6,9.6,0,0,0,1.59-1.84l.9-1.29A2.5,2.5,0,0,1,16,83.66Z"/><path class="cls-2" d="M37.78,88.36a4.12,4.12,0,0,0,.45,0c.08,0,.21-.08.22-.13a.33.33,0,0,0-.1-.27c-.18-.15-.4-.25-.59-.39a.51.51,0,0,1-.19-.25,15,15,0,0,0-3.28-6.3.2.2,0,0,1-.06-.14l.73.29c.29.12.56.27.85.37A2.61,2.61,0,0,1,37,82.67a11,11,0,0,1,1.58,3.22,17.17,17.17,0,0,1,.71,3.33,15.42,15.42,0,0,1-.46,5.89,27.43,27.43,0,0,1-1.14,3.42.75.75,0,0,1-.14.24l.17-3.18a3.76,3.76,0,0,0,.56-.33c.16-.13.15-.26,0-.39s-.3-.21-.44-.32a.34.34,0,0,1-.13-.21c-.08-1-.15-2.08-.21-3.13a.39.39,0,0,1,.06-.21,2.63,2.63,0,0,1,.31-.48A.69.69,0,0,0,38,90c-.07-.49-.13-1-.19-1.48A.37.37,0,0,1,37.78,88.36Z"/><path class="cls-2" d="M25.37,102.32c.36-.12.7-.25,1-.35a18,18,0,0,1,3-.64c.13,0,.17,0,.21.13a6.75,6.75,0,0,0,.82,1.74c.13.19.31.36.46.54l.31-.18c0,.41,0,.82,0,1.22a.47.47,0,0,1-.33.5c-.76.32-1.52.66-2.27,1a.21.21,0,0,1-.29-.06,30.8,30.8,0,0,1-2.83-3.71Z"/><path class="cls-2" d="M15.34,79.23l-1.78.23a.91.91,0,0,0-.54.23,15.19,15.19,0,0,0-3.5,4.58l-.14.27-.05-.11c-.05-.89-.11-1.78-.15-2.67a.77.77,0,0,1,.15-.43A21.18,21.18,0,0,1,14,76.56c.3-.21.61-.4.91-.59a.75.75,0,0,1,.13-.06Z"/><path class="cls-2" d="M20.28,105.14c.34-.25.65-.49,1-.71A19.14,19.14,0,0,1,24,102.86a.21.21,0,0,1,.31.1l2.59,3.57a.79.79,0,0,0,.11.14l-.68.11A21.61,21.61,0,0,1,23,107a.72.72,0,0,1-.37-.13c-.72-.5-1.42-1-2.13-1.52C20.44,105.29,20.37,105.22,20.28,105.14Z"/><path class="cls-2" d="M34.52,100.57c.45-.37.36-.88.37-1.34s0-1.13-.06-1.69a5.22,5.22,0,0,1,.68-2.68.17.17,0,0,1,.15-.06c.41.13.81.26,1.21.41a.25.25,0,0,1,.12.2c0,1.17,0,2.34,0,3.51,0,.19,0,.38,0,.57a2.26,2.26,0,0,1-.77,1.49.18.18,0,0,1-.14,0Z"/><path class="cls-2" d="M21.32,98.32l2.16,3.41-3.28,2.08a2.47,2.47,0,0,1,0-.38c.06-.78.09-1.56.22-2.33a12.13,12.13,0,0,1,.5-1.51c.13-.38.23-.78.34-1.17C21.28,98.39,21.3,98.37,21.32,98.32Z"/><path class="cls-2" d="M35.65,101.63a13.84,13.84,0,0,1-3.51,2.94.72.72,0,0,1,0-.2q0-.7.06-1.41a.31.31,0,0,1,.09-.2l1.49-1.34c.06,0,.15-.12.21-.11l1.65.25Z"/><path class="cls-2" d="M25.48,79.81a22.8,22.8,0,0,1,4.13.13,5.58,5.58,0,0,0-2.43,2.47Z"/><path class="cls-2" d="M8.11,83.39c0,.06,0,.1,0,.14,0,.63.08,1.26.11,1.89a.46.46,0,0,1-.08.28c-.43.59-.86,1.16-1.29,1.74,0,0,0,0,0,0A10.44,10.44,0,0,1,8.11,83.39Z"/><path class="cls-2" d="M18.9,106.59c.2-.25.38-.48.57-.69a.13.13,0,0,1,.14,0c.52.33,1,.68,1.53,1A9.74,9.74,0,0,1,18.9,106.59Z"/><path class="cls-2" d="M37,94.17l-1-.37.77-1.52h.06Z"/><path class="cls-2" d="M108.17,81.78a1.29,1.29,0,1,1-1.29,1.27A1.27,1.27,0,0,1,108.17,81.78Zm.3,1.43.1,0a.48.48,0,0,0,.33-.47.45.45,0,0,0-.33-.48c-.32-.06-.65-.06-1-.09v1.81h.3a4.82,4.82,0,0,1,0-.54.73.73,0,0,1,.07-.19c.08,0,.18.06.23.12a2.86,2.86,0,0,1,.28.45c.09.2.24.19.43.14Z"/><path class="cls-2" d="M60.35,89.34h-10c.07-.34.13-.67.22-1a4.72,4.72,0,0,1,2.09-2.9,5.3,5.3,0,0,1,3.14-.7,5.4,5.4,0,0,1,2.36.64,4.12,4.12,0,0,1,2.07,3A8.9,8.9,0,0,1,60.35,89.34Z"/><path class="cls-2" d="M108.47,83.21l.44.71c-.19,0-.34.06-.43-.14a2.86,2.86,0,0,0-.28-.45c0-.06-.15-.08-.23-.12a.73.73,0,0,0-.07.19,4.82,4.82,0,0,0,0,.54h-.3V82.13c.33,0,.66,0,1,.09a.45.45,0,0,1,.33.48.48.48,0,0,1-.33.47ZM107.9,83a2.45,2.45,0,0,0,.5-.06.27.27,0,0,0,.15-.23c0-.07-.09-.18-.16-.2a2.54,2.54,0,0,0-.49,0Z"/><path class="cls-2" d="M107.9,83v-.54a2.54,2.54,0,0,1,.49,0c.07,0,.17.13.16.2a.27.27,0,0,1-.15.23A2.45,2.45,0,0,1,107.9,83Z"/></g></svg>