<svg id="Layer_1" data-name="Layer 1" xmlns="http://www.w3.org/2000/svg" viewBox="0 0 115 115"><defs><style>.cls-1{fill:#fff;}.cls-1,.cls-2,.cls-3{stroke:#231f20;stroke-miterlimit:10;}.cls-1,.cls-2{stroke-width:3px;}.cls-2{fill:#dbd9d9;opacity:0.5;}.cls-3{fill:none;stroke-width:4px;}.cls-4{fill:#66767f;}.cls-5{fill:#fbab36;}</style></defs><title>Other</title><circle id="Background" class="cls-1" cx="57.5" cy="57.5" r="45"/><circle class="cls-2" cx="57.5" cy="57.5" r="45"/><circle class="cls-3" cx="57.5" cy="57.5" r="45"/><path class="cls-4" d="M35.59,64.65a1.59,1.59,0,1,1-2.93-1.22L40,43.53a1.59,1.59,0,1,1,2.93,1.22Z"/><path class="cls-4" d="M51.47,63.43a1.59,1.59,0,1,1-2.93,1.22l-7.33-19.9a1.59,1.59,0,1,1,2.93-1.22Zm15.88,1.22a1.59,1.59,0,1,1-2.94-1.22l7.33-19.91a1.59,1.59,0,1,1,2.93,1.23Z"/><path class="cls-4" d="M83.22,63.43a1.59,1.59,0,1,1-2.93,1.22L73,44.75a1.59,1.59,0,1,1,2.93-1.22Z"/><path class="cls-5" d="M53,63.19H31.18A1.81,1.81,0,0,0,29.37,65c0,4,5.68,7.26,12.7,7.26S54.77,69,54.77,65A1.82,1.82,0,0,0,53,63.19Zm14.52,19h-19a1.59,1.59,0,0,1-1.59-1.59c0-3.51,5-6.35,11.11-6.35s11.11,2.84,11.11,6.35A1.59,1.59,0,0,1,67.47,82.24Zm17.23-19H62.93A1.81,1.81,0,0,0,61.12,65c0,4,5.68,7.26,12.7,7.26S86.52,69,86.52,65A1.81,1.81,0,0,0,84.7,63.19Z"/><path class="cls-5" d="M59.53,33a1.59,1.59,0,0,0-3.18,0V75.89a1.59,1.59,0,0,0,3.18,0Z"/><circle class="cls-5" cx="57.94" cy="34.61" r="3.17"/><circle class="cls-5" cx="42.07" cy="44.14" r="3.18"/><circle class="cls-5" cx="73.82" cy="44.14" r="3.18"/><path class="cls-5" d="M73.82,44.14c0,1.75,0,0-15.88,0s-15.87,1.75-15.87,0,4.76-6.35,15.87-6.35S73.82,42.38,73.82,44.14Z"/></svg>