<svg id="Layer_1" data-name="Layer 1" xmlns="http://www.w3.org/2000/svg" viewBox="0 0 115 115"><defs><style>.cls-1{fill:#fff;}.cls-1,.cls-2,.cls-3{stroke:#231f20;stroke-miterlimit:10;}.cls-1,.cls-2{stroke-width:3px;}.cls-2{fill:#f9cee1;opacity:0.5;}.cls-3{fill:none;stroke-width:4px;}.cls-4{fill:#f4abba;}.cls-5{fill:#2a2f33;}</style></defs><title>Pork</title><circle id="Background" class="cls-1" cx="57.5" cy="57.5" r="45"/><circle class="cls-2" cx="57.5" cy="57.5" r="45"/><circle class="cls-3" cx="57.5" cy="57.5" r="45"/><path class="cls-4" d="M82.89,54.62C81.62,45.82,74.66,39.09,63,39.09c-.47,0-1,0-1.53,0a40,40,0,0,0-7,.89c-1.18.23-2.39.5-3.57.82-1.23-1.67-3.72-3.44-4.35-3.44-.81,0-.06,3,0,4.85a20.17,20.17,0,0,0-3.72,1.87c-5,3.37-5,5-10.86,5-2.59,0-2.52,2.63-2.52,5.88s-.07,4.16,2.52,5.88c3.47,2.32,7.51,5.74,12.63,8.56,3.21,5,.51,9.93,3.27,9.93,2,0,4.46-3.11,5.79-6.26A35.85,35.85,0,0,0,63,74.39,33.74,33.74,0,0,0,68,74c.43,3.08-.25,5.42,1.64,5.42,2.47,0,11.11-7.92,13-17.92.09-.45.16-.92.22-1.4,0-.14,0-.28.06-.43,0-.31,0-.64.07-1,1.66.43,3.41,1.1,3.41-.28C86.48,57.32,84.7,55.72,82.89,54.62Z"/><path class="cls-5" d="M46.14,49.18a1.68,1.68,0,1,1-1.68-1.68A1.68,1.68,0,0,1,46.14,49.18Z"/></svg>