<svg id="Layer_1" data-name="Layer 1" xmlns="http://www.w3.org/2000/svg" viewBox="0 0 115 115"><defs><style>.cls-1{fill:#fff;}.cls-1,.cls-2,.cls-3{stroke:#231f20;stroke-miterlimit:10;}.cls-1,.cls-3{stroke-width:3px;}.cls-2{fill:#8ed1c6;stroke-width:4px;opacity:0.5;}.cls-3{fill:none;}.cls-4{fill:#de3045;}.cls-5{fill:#be2032;}.cls-6{fill:#f5f8fa;}</style></defs><title>Sweet</title><circle id="Background" class="cls-1" cx="57.5" cy="57.5" r="45"/><circle class="cls-2" cx="57.5" cy="57.5" r="45"/><circle class="cls-3" cx="57.5" cy="57.5" r="45"/><path class="cls-4" d="M48.93,34.54c-.83-6.47-8.82-6.83-9.8-3.37l-1.46,6.41-6.34,1.48c-3.41,1-3.06,9.08,3.33,9.92l4.79.63c6.39.85,10.94-3.75,10.11-10.22ZM78.72,64.69c6.39.84,6.74,8.93,3.33,9.92l-6.34,1.48-1.46,6.42c-1,3.45-9,3.09-9.8-3.38l-.62-4.85c-.84-6.47,3.71-11.07,10.1-10.22Z"/><path class="cls-5" d="M75.89,64.32l-2-.27c-6.39-.84-10.94,3.76-10.1,10.23L64,75.34a15.09,15.09,0,0,0,7.87-4.45A16.2,16.2,0,0,0,75.89,64.32Zm-37-14.78.54.07c6.39.85,10.94-3.75,10.11-10.22L49.37,38a16.17,16.17,0,0,0-6.14,4A15.57,15.57,0,0,0,38.91,49.54Z"/><ellipse class="cls-4" cx="57.53" cy="56.42" rx="16.7" ry="16.91"/><path class="cls-6" d="M57.48,55.91a20.4,20.4,0,0,1-4.07,14.43,14.17,14.17,0,0,0,4.12.61,13.91,13.91,0,0,0,3.35-.42A18.07,18.07,0,0,0,57.48,55.91Zm0,0c5.34,1,9.78,5.22,10.63,10.29A14.46,14.46,0,0,0,71.79,58C68.88,55,64.11,52.87,57.48,55.91Zm0,0c1.65-3.6,7.07-6.89,12.29-7a14.43,14.43,0,0,0-2.1-2.72,14,14,0,0,0-4-2.85C59.92,45.27,56.66,49.09,57.48,55.91Z"/><path class="cls-6" d="M57.55,56c-4.41-2.35-7.18-8-6-12.75a14.23,14.23,0,0,0-4.18,2.92,14.5,14.5,0,0,0-2.22,2.93C47.18,52.19,51.05,55.16,57.55,56Zm-.13,0c-4,2.47-9.78,3.79-14.05,2.67a14.52,14.52,0,0,0,3,6.84C50.05,64.36,54.27,61.52,57.42,56Z"/></svg>