<svg id="Layer_1" data-name="Layer 1" xmlns="http://www.w3.org/2000/svg" viewBox="0 0 115 115"><defs><style>.cls-1{fill:#fff;}.cls-1,.cls-2,.cls-3{stroke:#231f20;stroke-miterlimit:10;}.cls-1,.cls-3{stroke-width:4px;}.cls-2{fill:#b4d56b;stroke-width:3px;opacity:0.5;}.cls-3{fill:none;}.cls-4{fill:#78b354;}.cls-5{fill:#f39120;}.cls-6{fill:#d47728;}</style></defs><title>Vege</title><circle id="Background" class="cls-1" cx="57.5" cy="57.5" r="45"/><circle class="cls-2" cx="57.5" cy="57.5" r="45"/><circle class="cls-3" cx="57.5" cy="57.5" r="45"/><path class="cls-4" d="M31.78,47.94c7.86,3.36,8.78,2.44,11,2.44s2-4.29,2-4.29,4.49,0,4.49-2.25,1.12-3.37-2.25-11.22S41.49,33.74,41.49,36C38.12,30.37,28,29.25,29.14,30.37,28,29.25,29.41,39.09,35,42.45,32.77,42.45,23.92,44.57,31.78,47.94Z"/><path class="cls-5" d="M42.05,42.15c5.27-5.26,11.49-5.35,23.58,6.74s20.76,32,18,34.8-22.71-5.87-34.8-18S36.78,47.43,42.05,42.15Z"/><path class="cls-6" d="M60.93,44.56a44.74,44.74,0,0,0-3.82-2.87,44.33,44.33,0,0,1-7.45,9.7C48,53,56.48,50.3,60.93,44.56ZM72.79,57.41c-1-1.39-2.06-2.76-3.15-4.08a44.41,44.41,0,0,1-8.1,10.87C59.93,65.82,68.33,63.12,72.79,57.41ZM50.24,67.13c5.76-4.45,8.47-12.92,6.86-11.3a43.78,43.78,0,0,1-10.33,7.81C47.41,64.32,49.75,66.67,50.24,67.13Zm21.14,1.4a43.66,43.66,0,0,1-9.58,7.38q2.18,1.36,4.31,2.54C70.77,73.85,72.85,67.07,71.38,68.53Z"/></svg>